<svg width="16" height="16" viewBox="0 0 16 16" fill="none" xmlns="http://www.w3.org/2000/svg">
<g clip-path="url(#clip0_584_265)">
<g filter="url(#filter0_d_584_265)">
<path d="M2.4 7.2C3.2825 7.2 4 6.4825 4 5.6C4 4.7175 3.2825 4 2.4 4C1.5175 4 0.8 4.7175 0.8 5.6C0.8 6.4825 1.5175 7.2 2.4 7.2ZM13.6 7.2C14.4825 7.2 15.2 6.4825 15.2 5.6C15.2 4.7175 14.4825 4 13.6 4C12.7175 4 12 4.7175 12 5.6C12 6.4825 12.7175 7.2 13.6 7.2ZM14.4 8H12.8C12.36 8 11.9625 8.1775 11.6725 8.465C12.68 9.0175 13.395 10.015 13.55 11.2H15.2C15.6425 11.2 16 10.8425 16 10.4V9.6C16 8.7175 15.2825 8 14.4 8ZM8 8C9.5475 8 10.8 6.7475 10.8 5.2C10.8 3.6525 9.5475 2.4 8 2.4C6.4525 2.4 5.2 3.6525 5.2 5.2C5.2 6.7475 6.4525 8 8 8ZM9.92 8.8H9.7125C9.1925 9.05 8.615 9.2 8 9.2C7.385 9.2 6.81 9.05 6.2875 8.8H6.08C4.49 8.8 3.2 10.09 3.2 11.68V12.4C3.2 13.0625 3.7375 13.6 4.4 13.6H11.6C12.2625 13.6 12.8 13.0625 12.8 12.4V11.68C12.8 10.09 11.51 8.8 9.92 8.8ZM4.3275 8.465C4.0375 8.1775 3.64 8 3.2 8H1.6C0.7175 8 0 8.7175 0 9.6V10.4C0 10.8425 0.3575 11.2 0.8 11.2H2.4475C2.605 10.015 3.32 9.0175 4.3275 8.465Z" fill=currentColor/>
<path d="M3.5 5.6C3.5 6.20636 3.00636 6.7 2.4 6.7C1.79364 6.7 1.3 6.20636 1.3 5.6C1.3 4.99364 1.79364 4.5 2.4 4.5C3.00636 4.5 3.5 4.99364 3.5 5.6ZM14.7 5.6C14.7 6.20636 14.2064 6.7 13.6 6.7C12.9936 6.7 12.5 6.20636 12.5 5.6C12.5 4.99364 12.9936 4.5 13.6 4.5C14.2064 4.5 14.7 4.99364 14.7 5.6ZM13.9652 10.7C13.7563 9.83185 13.2772 9.07424 12.6206 8.51452C12.6789 8.50496 12.7389 8.5 12.8 8.5H14.4C15.0064 8.5 15.5 8.99364 15.5 9.6V10.4C15.5 10.5664 15.3664 10.7 15.2 10.7H13.9652ZM10.3 5.2C10.3 6.47136 9.27136 7.5 8 7.5C6.72864 7.5 5.7 6.47136 5.7 5.2C5.7 3.92864 6.72864 2.9 8 2.9C9.27136 2.9 10.3 3.92864 10.3 5.2ZM8 9.7C8.65559 9.7 9.27003 9.54957 9.82318 9.3H9.92C11.2339 9.3 12.3 10.3661 12.3 11.68V12.4C12.3 12.7864 11.9864 13.1 11.6 13.1H4.4C4.01364 13.1 3.7 12.7864 3.7 12.4V11.68C3.7 10.3661 4.76614 9.3 6.08 9.3H6.17722C6.73149 9.54926 7.34372 9.7 8 9.7ZM3.2 8.5C3.26114 8.5 3.32106 8.50496 3.37941 8.51451C2.72258 9.07434 2.24326 9.83201 2.033 10.7H0.8C0.633642 10.7 0.5 10.5664 0.5 10.4V9.6C0.5 8.99364 0.993643 8.5 1.6 8.5H3.2Z" stroke="black"/>
</g>
</g>
<defs>
<filter id="filter0_d_584_265" x="-4" y="2.4" width="24" height="19.2" filterUnits="userSpaceOnUse" color-interpolation-filters="sRGB">
<feFlood flood-opacity="0" result="BackgroundImageFix"/>
<feColorMatrix in="SourceAlpha" type="matrix" values="0 0 0 0 0 0 0 0 0 0 0 0 0 0 0 0 0 0 127 0" result="hardAlpha"/>
<feOffset dy="4"/>
<feGaussianBlur stdDeviation="2"/>
<feComposite in2="hardAlpha" operator="out"/>
<feColorMatrix type="matrix" values="0 0 0 0 0 0 0 0 0 0 0 0 0 0 0 0 0 0 0.25 0"/>
<feBlend mode="normal" in2="BackgroundImageFix" result="effect1_dropShadow_584_265"/>
<feBlend mode="normal" in="SourceGraphic" in2="effect1_dropShadow_584_265" result="shape"/>
</filter>
<clipPath id="clip0_584_265">
<rect width="16" height="16" fill=currentColor/>
</clipPath>
</defs>
</svg>
